<?xml version="1.0" encoding="UTF-8" standalone="no"?><!DOCTYPE svg PUBLIC "-//W3C//DTD SVG 1.1//EN" "http://www.w3.org/Graphics/SVG/1.1/DTD/svg11.dtd"><svg width="100%" height="100%" viewBox="0 0 7709 4500" version="1.1" xmlns="http://www.w3.org/2000/svg" xmlns:xlink="http://www.w3.org/1999/xlink" xml:space="preserve" xmlns:serif="http://www.serif.com/" style="fill-rule:evenodd;clip-rule:evenodd;stroke-linejoin:round;stroke-miterlimit:2;"><path d="M1835.62,2450.68c-0,-0 -521.168,41.876 -851.216,819.639c-186.339,439.112 -78.312,666.018 127.176,733.874c346.987,114.582 717.632,-98.214 1147.42,-478.791c310.852,-275.259 1050.78,-1086.89 1182.91,-1284.96c70.975,-106.398 -534.034,-1137.38 -596.384,-788.777c0,-0 -148.849,-434.8 142.935,-275.203c291.785,159.597 595.399,777.524 623,818.446c27.601,40.923 810.386,-1026.93 1119.82,-1870.15c58.199,-158.592 285.555,-115.544 228.696,36.298c-123.858,330.76 -327.272,1317.7 -327.272,1317.7c108.121,-314.193 1007.76,-1602.6 1439.21,-982.135c464.876,668.539 138.006,1796.49 -1230.23,2381.68c-0,0 634.582,1427.55 1356.65,1242.12c671.457,-172.432 789.16,-997.52 402.005,-1250.05c-109.225,-71.244 -226.131,-48.005 -329.106,4.127c-120.016,60.758 -172.456,34.43 -59.062,-77.349c107.673,-106.139 279.585,-200.815 540.652,-166.558c748.655,98.24 615.013,1641.41 -523.684,1764.78c-1038.74,112.536 -1681.95,-1291.61 -1774.37,-1393.92c-76.839,-85.063 -241.543,908.29 -271.577,1248.32c-9.915,112.258 -113.899,113.623 -113.899,113.623l-229.273,0c-0,0 -112.723,-2.349 -120.392,-112.984c-41.015,-591.651 -112.253,-1380.59 -201.329,-1741.31c-0,0 -1601.86,2295.49 -2735.48,1937.42c0,-0 -728.347,-153.956 -109.129,-1300.31c517.181,-957.45 1158.78,-835.328 1158.78,-835.328c133.059,20.818 145.895,108.971 3.137,139.796Zm2625.32,-1277.95l-441.955,2520.89c0,-0 -58.79,-848.248 -303.525,-1398.45l745.48,-1122.44Zm733.159,1131.76c-320.372,236.582 -677.71,402.829 -677.71,402.829c0,-0 702.772,-2236.11 1139.78,-1841.5c562.526,507.943 -199.403,1244.7 -462.074,1438.67Z" style="fill:url(#_Linear1);"/><defs><linearGradient id="_Linear1" x1="0" y1="0" x2="1" y2="0" gradientUnits="userSpaceOnUse" gradientTransform="matrix(13599.5,-5696.26,5696.26,13599.5,497.237,4216.18)"><stop offset="0" style="stop-color:#000;stop-opacity:1"/><stop offset="1" style="stop-color:#620000;stop-opacity:1"/></linearGradient></defs></svg>